<?xml version="1.0" encoding="UTF-8" standalone="no"?>
<!DOCTYPE svg PUBLIC "-//W3C//DTD SVG 1.1//EN" "http://www.w3.org/Graphics/SVG/1.1/DTD/svg11.dtd">
<svg version="1.1" xmlns="http://www.w3.org/2000/svg" xmlns:xlink="http://www.w3.org/1999/xlink" preserveAspectRatio="xMidYMid meet" viewBox="0 0 640 640" width="640" height="640"><defs><path d="M640 320C640 496.61 496.61 640 320 640C143.39 640 0 496.61 0 320C0 143.39 143.39 0 320 0C496.61 0 640 143.39 640 320Z" id="c4Cu7KqjTW"></path><path d="M497.77 184.99C510.23 193.4 513.52 210.32 505.11 222.79C463.84 283.98 359.05 439.33 318.73 499.1C307.69 515.47 285.47 519.79 269.11 508.75C259.62 502.35 242.47 490.78 228.4 481.29C224.68 478.79 223.7 473.74 226.21 470.03C269.62 405.67 386.56 232.3 427.78 171.19C436.33 158.51 453.55 155.16 466.23 163.72C477.05 171.02 486.87 177.64 497.77 184.99Z" id="b3neqqcZeH"></path><path d="M121.93 390.37C141.13 361.57 180.03 353.79 208.82 372.99C226.77 384.95 258.97 406.42 284.54 423.46C292.27 428.62 294.36 439.07 289.21 446.81C282.25 457.24 270.74 474.51 263.79 484.94C258.63 492.67 248.18 494.76 240.44 489.61C214.87 472.56 152.17 430.76 126.6 413.71C118.86 408.55 116.77 398.1 121.93 390.37C128.88 379.94 120.06 393.17 121.93 390.37Z" id="bElOTXJTL"></path></defs><g><g><g><use xlink:href="#c4Cu7KqjTW" opacity="1" fill="#35e686" fill-opacity="1"></use></g><g><use xlink:href="#b3neqqcZeH" opacity="1" fill="#ffffff" fill-opacity="1"></use></g><g><use xlink:href="#bElOTXJTL" opacity="1" fill="#ffffff" fill-opacity="1"></use></g></g></g></svg>