<?xml version="1.0" encoding="UTF-8" standalone="no"?>
<!DOCTYPE svg PUBLIC "-//W3C//DTD SVG 1.1//EN" "http://www.w3.org/Graphics/SVG/1.1/DTD/svg11.dtd">
<svg version="1.1" xmlns="http://www.w3.org/2000/svg" xmlns:xlink="http://www.w3.org/1999/xlink" preserveAspectRatio="xMidYMid meet" viewBox="0 0 640 640" width="640" height="640"><defs><path d="M640 320C640 496.61 496.61 640 320 640C143.39 640 0 496.61 0 320C0 143.39 143.39 0 320 0C496.61 0 640 143.39 640 320Z" id="a1aVhzG1Ug"></path><path d="M382.5 320C382.5 354.49 354.49 382.5 320 382.5C285.51 382.5 257.5 354.49 257.5 320C257.5 285.51 285.51 257.5 320 257.5C354.49 257.5 382.5 285.51 382.5 320Z" id="lnzd6fw8U"></path><path d="M565 320C565 354.49 536.99 382.5 502.5 382.5C468 382.5 440 354.49 440 320C440 285.51 468 257.5 502.5 257.5C536.99 257.5 565 285.51 565 320Z" id="c3s0FtnPD"></path><path d="M200 320C200 354.49 172 382.5 137.5 382.5C103.01 382.5 75 354.49 75 320C75 285.51 103.01 257.5 137.5 257.5C172 257.5 200 285.51 200 320Z" id="e1uHhmkO3Z"></path></defs><g><g><g><use xlink:href="#a1aVhzG1Ug" opacity="1" fill="#f9dc44" fill-opacity="1"></use></g><g><use xlink:href="#lnzd6fw8U" opacity="1" fill="#ffffff" fill-opacity="1"></use></g><g><use xlink:href="#c3s0FtnPD" opacity="1" fill="#ffffff" fill-opacity="1"></use></g><g><use xlink:href="#e1uHhmkO3Z" opacity="1" fill="#ffffff" fill-opacity="1"></use></g></g></g></svg>